<?xml version="1.0" standalone="no"?>
<svg xmlns:xlink="http://www.w3.org/1999/xlink" id="wave" style="transform:rotate(180deg); transition: 0.3s" viewBox="0 0 1440 100" version="1.1" xmlns="http://www.w3.org/2000/svg"><defs><linearGradient id="sw-gradient-0" x1="0" x2="0" y1="1" y2="0"><stop stop-color="rgba(252, 244, 232, 1)" offset="0%"/><stop stop-color="rgba(252, 244, 232, 1)" offset="100%"/></linearGradient></defs><path style="transform:translate(0, 0px); opacity:1" fill="url(#sw-gradient-0)" d="M0,80L30,66.7C60,53,120,27,180,13.3C240,0,300,0,360,11.7C420,23,480,47,540,53.3C600,60,660,50,720,53.3C780,57,840,73,900,76.7C960,80,1020,70,1080,56.7C1140,43,1200,27,1260,21.7C1320,17,1380,23,1440,35C1500,47,1560,63,1620,70C1680,77,1740,73,1800,68.3C1860,63,1920,57,1980,48.3C2040,40,2100,30,2160,35C2220,40,2280,60,2340,61.7C2400,63,2460,47,2520,38.3C2580,30,2640,30,2700,40C2760,50,2820,70,2880,68.3C2940,67,3000,43,3060,28.3C3120,13,3180,7,3240,3.3C3300,0,3360,0,3420,6.7C3480,13,3540,27,3600,35C3660,43,3720,47,3780,45C3840,43,3900,37,3960,33.3C4020,30,4080,30,4140,38.3C4200,47,4260,63,4290,71.7L4320,80L4320,100L4290,100C4260,100,4200,100,4140,100C4080,100,4020,100,3960,100C3900,100,3840,100,3780,100C3720,100,3660,100,3600,100C3540,100,3480,100,3420,100C3360,100,3300,100,3240,100C3180,100,3120,100,3060,100C3000,100,2940,100,2880,100C2820,100,2760,100,2700,100C2640,100,2580,100,2520,100C2460,100,2400,100,2340,100C2280,100,2220,100,2160,100C2100,100,2040,100,1980,100C1920,100,1860,100,1800,100C1740,100,1680,100,1620,100C1560,100,1500,100,1440,100C1380,100,1320,100,1260,100C1200,100,1140,100,1080,100C1020,100,960,100,900,100C840,100,780,100,720,100C660,100,600,100,540,100C480,100,420,100,360,100C300,100,240,100,180,100C120,100,60,100,30,100L0,100Z"/></svg>